<svg id="Group_2" data-name="Group 2" xmlns="http://www.w3.org/2000/svg" xmlns:xlink="http://www.w3.org/1999/xlink" width="160" height="44.775" viewBox="0 0 160 44.775">
  <defs>
    <clipPath id="clip-path">
      <rect id="Rectangle_2" data-name="Rectangle 2" width="160" height="44.775" fill="#323232"/>
    </clipPath>
  </defs>
  <g id="Mask_Group_1" data-name="Mask Group 1" clip-path="url(#clip-path)">
    <path id="Path_1" data-name="Path 1" d="M17.372,14.3a19.553,19.553,0,0,0-8.057,1.5,15.184,15.184,0,0,0-5.427,3.993,15.283,15.283,0,0,0-3,5.6A22.35,22.35,0,0,0,0,31.668V47.756A1.284,1.284,0,0,0,1.284,49.04H4.514A1.284,1.284,0,0,0,5.8,47.756V31.668a18.575,18.575,0,0,1,.427-3.59,10.387,10.387,0,0,1,1.613-3.766,9.737,9.737,0,0,1,3.433-2.988,12.766,12.766,0,0,1,6.1-1.23,1.284,1.284,0,0,0,1.284-1.284V15.58A1.284,1.284,0,0,0,17.372,14.3" transform="translate(0 -9.973)" fill="#3f987c"/>
    <path id="Path_2" data-name="Path 2" d="M104.287,18.075a17.332,17.332,0,0,0-5.51-3.839A17.049,17.049,0,0,0,91.794,12.8a16.821,16.821,0,0,0-6.956,1.437,17.624,17.624,0,0,0-9.154,9.4,17.045,17.045,0,0,0-1.327,6.6,18.031,18.031,0,0,0,1.181,6.4A16.979,16.979,0,0,0,79,42.223a17.51,17.51,0,0,0,5.469,3.941,17.173,17.173,0,0,0,7.328,1.51,1.284,1.284,0,0,0,1.284-1.284V43.16a1.284,1.284,0,0,0-1.284-1.284,11.8,11.8,0,0,1-3.784-.706,12.326,12.326,0,0,1-3.8-2.138A11.63,11.63,0,0,1,81.3,35.389a10.959,10.959,0,0,1-1.144-5.152,10.955,10.955,0,0,1,.952-4.543,12.033,12.033,0,0,1,6.283-6.2,11.074,11.074,0,0,1,4.4-.9,10.766,10.766,0,0,1,4.853,1.06,13.551,13.551,0,0,1,3.72,2.682,11.676,11.676,0,0,1,2.3,3.344,10.41,10.41,0,0,1,.586,1.653H91.794a1.284,1.284,0,0,0-1.284,1.284v3.166a1.284,1.284,0,0,0,1.284,1.284h16.153a1.284,1.284,0,0,0,1.284-1.284V30.238a17.06,17.06,0,0,0-1.327-6.6,18.1,18.1,0,0,0-3.617-5.562" transform="translate(-51.873 -8.93)" fill="#3f987c"/>
    <path id="Path_3" data-name="Path 3" d="M214.705,31.824a3.17,3.17,0,1,0-3.169-3.17,3.17,3.17,0,0,0,3.169,3.17" transform="translate(-147.573 -17.779)" fill="#3f987c"/>
    <path id="Path_4" data-name="Path 4" d="M214.705,93.79a3.17,3.17,0,1,0,3.17,3.17,3.17,3.17,0,0,0-3.17-3.17" transform="translate(-147.573 -65.43)" fill="#3f987c"/>
    <path id="Path_5" data-name="Path 5" d="M269.758,13.8a4.1,4.1,0,0,1,3.337-1.613,3.905,3.905,0,0,1,2.2.583c.373.236.682.521.682.918a.946.946,0,0,1-.261.633.883.883,0,0,1-.62.261,1.77,1.77,0,0,1-.856-.347,2.952,2.952,0,0,0-1.526-.434c-1.811,0-2.952,1.377-2.952,3.288v6.339a1.37,1.37,0,0,1-.161.831.912.912,0,0,1-1.489,0,1.371,1.371,0,0,1-.161-.831V13.438a1.371,1.371,0,0,1,.161-.831.912.912,0,0,1,1.489,0,1.369,1.369,0,0,1,.161.831Z" transform="translate(-186.925 -8.501)" fill="#323232"/>
    <path id="Path_6" data-name="Path 6" d="M306.291,17.531a5.1,5.1,0,0,0-.385-1.985,3.144,3.144,0,0,0-5.706,0,5.1,5.1,0,0,0-.385,1.985ZM299.815,18.9c0,2.667,1.265,4.231,3.622,4.231a4,4,0,0,0,2.618-.881c.384-.323.571-.434.844-.434a.819.819,0,0,1,.769.782c0,.546-.782,1.092-1.266,1.389a6.045,6.045,0,0,1-3.039.707c-3.238,0-5.347-1.936-5.347-6.253,0-4.032,1.96-6.253,5.037-6.253,3.1,0,4.987,2.258,5.012,5.657a1.105,1.105,0,0,1-.248.819,1,1,0,0,1-.794.236Z" transform="translate(-207.903 -8.5)" fill="#323232"/>
    <path id="Path_7" data-name="Path 7" d="M340.228,22.652a.875.875,0,0,1,.285-.62.768.768,0,0,1,.521-.186,1.479,1.479,0,0,1,.819.347,5.164,5.164,0,0,0,3.213.918c2.072,0,3.25-.707,3.25-2.146,0-1.092-.645-1.65-2.034-1.774L344.272,19c-2.369-.211-3.648-1.265-3.648-3.275,0-2.221,1.874-3.585,4.491-3.585a7.332,7.332,0,0,1,3.412.769,1.62,1.62,0,0,1,.608.447.71.71,0,0,1,.137.459.864.864,0,0,1-.2.484.748.748,0,0,1-.571.261,1.44,1.44,0,0,1-.682-.236,5.726,5.726,0,0,0-2.729-.658c-1.737,0-2.729.72-2.729,2.01,0,1.1.682,1.625,2.146,1.762l1.96.186c2.146.2,3.6,1.005,3.6,3.313,0,2.357-2.022,3.722-4.975,3.722a7.028,7.028,0,0,1-4.268-1.166,1.1,1.1,0,0,1-.6-.844" transform="translate(-237.351 -8.472)" fill="#323232"/>
    <path id="Path_8" data-name="Path 8" d="M389.245,23.077c2.668,0,3.064-2.258,3.064-4.64s-.4-4.64-3.064-4.64-3.064,2.258-3.064,4.64.4,4.64,3.064,4.64m3.362.546a4.209,4.209,0,0,1-2.978,1.067,3.952,3.952,0,0,1-3.449-1.563v5.756a1.372,1.372,0,0,1-.161.831.913.913,0,0,1-1.489,0,1.372,1.372,0,0,1-.161-.831V13.449a1.372,1.372,0,0,1,.161-.831.913.913,0,0,1,1.489,0,1.372,1.372,0,0,1,.161.831V13.8a3.912,3.912,0,0,1,3.449-1.613,4.209,4.209,0,0,1,2.978,1.067c1.241,1.241,1.514,3.226,1.514,5.186s-.273,3.945-1.514,5.186" transform="translate(-268.145 -8.5)" fill="#323232"/>
    <path id="Path_9" data-name="Path 9" d="M435.307,17.531a5.1,5.1,0,0,0-.384-1.985,3.144,3.144,0,0,0-5.707,0,5.1,5.1,0,0,0-.385,1.985ZM428.831,18.9c0,2.667,1.265,4.231,3.622,4.231a4,4,0,0,0,2.618-.881c.384-.323.571-.434.844-.434a.819.819,0,0,1,.769.782c0,.546-.782,1.092-1.265,1.389a6.045,6.045,0,0,1-3.04.707c-3.238,0-5.347-1.936-5.347-6.253,0-4.032,1.96-6.253,5.037-6.253,3.1,0,4.987,2.258,5.012,5.657a1.105,1.105,0,0,1-.248.819,1,1,0,0,1-.794.236Z" transform="translate(-297.908 -8.5)" fill="#323232"/>
    <path id="Path_10" data-name="Path 10" d="M475.831,12.185a4.4,4.4,0,0,1,2.978,1c.583.459.868.707.868,1.154a.844.844,0,0,1-.261.583.833.833,0,0,1-.558.223c-.273,0-.459-.136-.868-.471a3.019,3.019,0,0,0-2.158-.881,3.241,3.241,0,0,0-2.792,1.352,5.28,5.28,0,0,0-.794,3.288,5.262,5.262,0,0,0,.794,3.275,3.251,3.251,0,0,0,2.792,1.365,2.961,2.961,0,0,0,2.158-.881,1.525,1.525,0,0,1,.868-.471.832.832,0,0,1,.558.223.843.843,0,0,1,.261.583c0,.447-.347.769-.868,1.166a4.493,4.493,0,0,1-2.978.992c-3.114,0-5.4-2.084-5.4-6.253s2.283-6.253,5.4-6.253" transform="translate(-328.186 -8.501)" fill="#323232"/>
    <path id="Path_11" data-name="Path 11" d="M511.675,12.7c0,1.116.509,1.774,1.613,1.774a1.532,1.532,0,0,1,.806.149.765.765,0,0,1,0,1.265,1.528,1.528,0,0,1-.806.149h-.323a2.982,2.982,0,0,1-3.1-3.275V5.223h-.856a1.118,1.118,0,0,1-.657-.124.611.611,0,0,1-.3-.571.611.611,0,0,1,.3-.571,1.118,1.118,0,0,1,.657-.124h.856V1.216a1.373,1.373,0,0,1,.161-.831.913.913,0,0,1,1.489,0,1.369,1.369,0,0,1,.161.831V3.834h1.8a1.12,1.12,0,0,1,.658.124.61.61,0,0,1,.3.571.611.611,0,0,1-.3.571,1.12,1.12,0,0,1-.658.124h-1.8Z" transform="translate(-354.43)" fill="#323232"/>
    <path id="Path_12" data-name="Path 12" d="M273.964,94.055a5.1,5.1,0,0,0-.384-1.985,3.144,3.144,0,0,0-5.707,0,5.1,5.1,0,0,0-.385,1.985Zm-6.476,1.365c0,2.668,1.265,4.231,3.622,4.231a4.006,4.006,0,0,0,2.618-.881c.384-.323.571-.435.844-.435a.819.819,0,0,1,.769.782c0,.546-.782,1.092-1.265,1.389a6.045,6.045,0,0,1-3.039.707c-3.238,0-5.347-1.935-5.347-6.253,0-4.032,1.96-6.253,5.037-6.253,3.1,0,4.987,2.258,5.012,5.657a1.106,1.106,0,0,1-.248.819,1,1,0,0,1-.794.236Z" transform="translate(-185.351 -61.885)" fill="#323232"/>
    <path id="Path_13" data-name="Path 13" d="M321.013,99.948a1.417,1.417,0,0,1-.161.831.875.875,0,0,1-.744.385.86.86,0,0,1-.744-.385,1.42,1.42,0,0,1-.161-.831V93.571c0-2.171-1.129-3.25-2.99-3.25s-3.052,1.1-3.052,3.25v6.377a1.422,1.422,0,0,1-.161.831.913.913,0,0,1-1.489,0,1.42,1.42,0,0,1-.161-.831V89.973a1.372,1.372,0,0,1,.161-.831.913.913,0,0,1,1.489,0,1.372,1.372,0,0,1,.161.831V90.2a4.48,4.48,0,0,1,3.424-1.489,4.369,4.369,0,0,1,3.163,1.141,4.539,4.539,0,0,1,1.265,3.411Z" transform="translate(-217.204 -61.885)" fill="#323232"/>
    <path id="Path_14" data-name="Path 14" d="M363.722,94.055a5.1,5.1,0,0,0-.385-1.985,3.144,3.144,0,0,0-5.706,0,5.1,5.1,0,0,0-.385,1.985Zm-6.476,1.365c0,2.668,1.265,4.231,3.622,4.231a4.006,4.006,0,0,0,2.618-.881c.384-.323.571-.435.844-.435a.819.819,0,0,1,.769.782c0,.546-.782,1.092-1.265,1.389a6.045,6.045,0,0,1-3.039.707c-3.238,0-5.347-1.935-5.347-6.253,0-4.032,1.96-6.253,5.037-6.253,3.1,0,4.987,2.258,5.012,5.657a1.106,1.106,0,0,1-.248.819,1,1,0,0,1-.794.236Z" transform="translate(-247.968 -61.885)" fill="#323232"/>
    <path id="Path_15" data-name="Path 15" d="M402.918,90.32a4.1,4.1,0,0,1,3.337-1.613,3.905,3.905,0,0,1,2.2.583c.373.236.682.521.682.918a.946.946,0,0,1-.261.633.881.881,0,0,1-.62.26,1.772,1.772,0,0,1-.856-.347,2.95,2.95,0,0,0-1.526-.434c-1.811,0-2.952,1.377-2.952,3.288v6.339a1.37,1.37,0,0,1-.161.831.912.912,0,0,1-1.489,0,1.372,1.372,0,0,1-.161-.831V89.96a1.372,1.372,0,0,1,.161-.831.912.912,0,0,1,1.489,0,1.37,1.37,0,0,1,.161.831Z" transform="translate(-279.821 -61.884)" fill="#323232"/>
    <path id="Path_16" data-name="Path 16" d="M436.2,90.32c-2.655,0-3.052,2.283-3.052,4.553s.4,4.528,3.052,4.528,3.027-2.27,3.027-4.541-.373-4.54-3.027-4.54m3.052,11.042V99.414a3.954,3.954,0,0,1-3.449,1.625,4.241,4.241,0,0,1-2.977-1.092c-1.216-1.216-1.489-3.1-1.489-5.087s.273-3.87,1.489-5.086a4.3,4.3,0,0,1,3-1.067,3.847,3.847,0,0,1,3.424,1.588v-.323a1.368,1.368,0,0,1,.161-.831.912.912,0,0,1,1.489,0,1.37,1.37,0,0,1,.161.831v11.451a4.9,4.9,0,0,1-5.161,5.235,5.31,5.31,0,0,1-2.716-.6c-.447-.248-1.291-.794-1.291-1.34a.807.807,0,0,1,.757-.819c.248,0,.459.112.906.459a3.477,3.477,0,0,0,2.307.732c2.357,0,3.387-1.662,3.387-3.734" transform="translate(-300.914 -61.884)" fill="#323232"/>
    <path id="Path_17" data-name="Path 17" d="M480.91,89.74c.161-.484.372-.869.893-.869a.892.892,0,0,1,.819.534,1.323,1.323,0,0,1-.074.881l-4.789,13.833a3.572,3.572,0,0,1-.868,1.464,3.092,3.092,0,0,1-2.245.831,1.392,1.392,0,0,1-.843-.186.736.736,0,0,1-.273-.62.768.768,0,0,1,.285-.633,1,1,0,0,1,.658-.174c.893,0,1.464-.347,1.848-1.5l.769-2.307-3.734-10.707a1.321,1.321,0,0,1-.074-.881.891.891,0,0,1,.819-.534c.521,0,.732.385.893.869l2.953,9.019Z" transform="translate(-330.139 -61.999)" fill="#323232"/>
  </g>
</svg>