<?xml version="1.0" encoding="UTF-8"?>
<!-- Generator: Adobe Illustrator 27.9.0, SVG Export Plug-In . SVG Version: 6.00 Build 0)  -->
<svg version="1.1" id="Layer_1" xmlns="http://www.w3.org/2000/svg" xmlns:xlink="http://www.w3.org/1999/xlink" x="0px" y="0px" viewBox="0 0 702.2 318.2" style="enable-background:new 0 0 702.2 318.2;" xml:space="preserve">
<style type="text/css">
	.st0{fill:#71706E;}
	.st1{fill:#4377BB;}
</style>
<g>
	<g>
		<path class="st0" d="M254.1,84.7c2.5-2.3,5.4-3.5,8.9-3.5c3.5,0,6.5,1.2,8.9,3.5c2.5,2.3,3.7,5.1,3.7,8.5v68.6    c0,18.3-7,34-21.1,47c-14.1,13-31.1,19.5-51.2,19.5c-20.1,0-37.1-6.4-51.1-19.3c-13.9-12.9-20.9-28.6-20.9-47.1v-56.8H90.7v116.6    c0,20.3-7.6,37.5-22.8,51.8c-15.2,14.3-33.6,21.4-55.2,21.4c-3.5,0-6.5-1.2-9-3.5C1.2,289,0,286.2,0,282.8c0-3.3,1.2-6.2,3.7-8.5    c2.5-2.3,5.5-3.5,9-3.5c14.7,0,27.2-4.9,37.4-14.6c10.2-9.7,15.3-21.3,15.3-34.8V73.3c0-20.1,7.6-37.3,22.9-51.7    C103.4,7.2,121.7,0,143,0c3.5,0,6.5,1.2,9,3.5c2.5,2.3,3.7,5.1,3.7,8.5c0,3.1-1.2,5.9-3.7,8.3c-2.5,2.4-5.5,3.6-9,3.6    c-14.5,0-26.9,4.9-37,14.6c-10.2,9.7-15.3,21.3-15.3,34.8v7.9H144c3.5,0,6.5,1.2,9,3.5c2.5,2.3,3.7,5.1,3.7,8.5v68.6    c0,11.8,4.5,21.8,13.5,30.2c9,8.4,20.1,12.5,33.2,12.5c13.1,0,24.2-4.2,33.3-12.6c9.1-8.4,13.7-18.4,13.7-30.1V93.1    C250.4,89.8,251.6,87,254.1,84.7z"/>
		<path class="st0" d="M455.8,153.6c0,3.3-1.2,6.2-3.7,8.5c-2.5,2.3-5.5,3.5-9,3.5H327.6c3.1,10.8,9.3,19.7,18.7,26.7    c9.4,7,20,10.5,31.9,10.5h15.4c3.5,0,6.5,1.2,9,3.5c2.5,2.3,3.7,5.1,3.7,8.4c0,3.3-1.2,6.1-3.7,8.4c-2.5,2.3-5.5,3.5-9,3.5h-15.4    c-21.3,0-39.5-7.1-54.6-21.3c-15.1-14.2-22.7-31.4-22.7-51.5c0-20.1,7.6-37.3,22.9-51.5C339,88,357.1,80.9,378.1,80.9    c21.3,0,39.5,7.1,54.8,21.3C448.1,116.4,455.8,133.6,455.8,153.6z M378.1,103.3c-12.9,0-24.1,3.9-33.6,11.6    c-9.5,7.8-15.4,17.6-17.7,29.4h102.8c-2.3-12-8.3-21.8-18-29.5C402,107.2,390.8,103.3,378.1,103.3z"/>
		<path class="st0" d="M557.7,226.5c-21.5,0-39.8-7.2-54.9-21.5c-15.1-14.3-22.7-31.5-22.7-51.4V32.2c0-3.3,1.2-6.2,3.7-8.5    c2.5-2.3,5.5-3.5,9-3.5c3.5,0,6.5,1.2,9,3.5c2.5,2.3,3.7,5.1,3.7,8.5v121.4c0,13.5,5.1,25,15.4,34.7c10.3,9.6,22.6,14.5,36.9,14.5    c3.5,0,6.5,1.2,8.9,3.5c2.4,2.3,3.6,5.1,3.6,8.4c0,3.3-1.2,6.1-3.6,8.4C564.3,225.4,561.3,226.5,557.7,226.5z"/>
		<path class="st0" d="M689.6,81.2c3.5,0,6.5,1.2,9,3.5c2.5,2.3,3.7,5.1,3.7,8.4c0,3.3-1.2,6.1-3.7,8.4c-2.5,2.3-5.5,3.5-9,3.5    c-9.6,0-17.9,3.3-24.8,9.8c-6.9,6.5-10.4,14.2-10.4,23v32.8c0,15.4-5.8,28.6-17.5,39.5c-11.7,10.9-25.8,16.4-42.5,16.4    c-3.5,0-6.5-1.2-9-3.5c-2.5-2.3-3.7-5.1-3.7-8.4c0-3.3,1.2-6.1,3.7-8.4c2.5-2.3,5.5-3.5,9-3.5c9.6,0,17.8-3.2,24.6-9.5    c6.8-6.3,10.2-13.9,10.2-22.7v-32.8c0-15.6,5.9-29,17.7-40C658.8,86.7,673,81.2,689.6,81.2z"/>
	</g>
</g>
<g>
	<g>
		<path class="st1" d="M108.8,294.9c-0.8,0.8-1.7,1.1-2.8,1.1c-1.1,0-2-0.4-2.8-1.1c-0.8-0.8-1.1-1.7-1.1-2.8v-21.8    c0-6,2.1-11.2,6.4-15.4c4.3-4.2,9.6-6.3,15.8-6.3c1.1,0,2,0.4,2.8,1.1c0.8,0.8,1.1,1.7,1.1,2.7c0,1.1-0.4,2-1.1,2.7    c-0.8,0.8-1.7,1.1-2.8,1.1c-4,0-7.5,1.4-10.3,4.1s-4.2,6-4.2,9.9v21.8C109.9,293.2,109.5,294.1,108.8,294.9z"/>
		<path class="st1" d="M174.7,272.2c0,1.1-0.4,2-1.1,2.8c-0.8,0.8-1.7,1.1-2.8,1.1h-35.5c0.9,3.5,2.9,6.4,5.7,8.7    c2.9,2.3,6.2,3.4,9.8,3.4h4.7c1.1,0,2,0.4,2.8,1.1c0.8,0.8,1.1,1.7,1.1,2.7c0,1.1-0.4,2-1.1,2.7c-0.8,0.8-1.7,1.1-2.8,1.1h-4.7    c-6.5,0-12.1-2.3-16.8-7c-4.7-4.6-7-10.2-7-16.8c0-6.6,2.3-12.2,7-16.8s10.3-7,16.7-7c6.5,0,12.2,2.3,16.8,7    S174.7,265.7,174.7,272.2z M150.8,255.8c-4,0-7.4,1.3-10.3,3.8c-2.9,2.5-4.7,5.7-5.4,9.6h31.6c-0.7-3.9-2.5-7.1-5.5-9.6    C158.2,257.1,154.7,255.8,150.8,255.8z"/>
		<path class="st1" d="M201.7,248.6c1.1,0,2,0.4,2.8,1.1c0.8,0.8,1.1,1.7,1.1,2.7c0,1.1-0.4,2-1.1,2.7c-0.8,0.8-1.7,1.1-2.8,1.1    c-3,0-5.5,1.1-7.6,3.2c-2.1,2.1-3.2,4.6-3.2,7.5v10.7c0,5-1.8,9.3-5.4,12.9c-3.6,3.6-7.9,5.4-13.1,5.4c-1.1,0-2-0.4-2.8-1.1    c-0.8-0.8-1.1-1.7-1.1-2.7c0-1.1,0.4-2,1.1-2.7c0.8-0.8,1.7-1.1,2.8-1.1c3,0,5.5-1,7.6-3.1c2.1-2.1,3.1-4.5,3.1-7.4V267    c0-5.1,1.8-9.4,5.5-13.1C192.3,250.4,196.7,248.6,201.7,248.6z"/>
		<path class="st1" d="M212.4,255.5c4.7-4.7,10.3-7.1,17-7.1c6.6,0,12.3,2.4,17,7.1c4.7,4.7,7,10.4,7,17c0,6.6-2.4,12.3-7.1,17    c-4.7,4.7-10.3,7-16.9,7c-6.2,0-11.6-2.1-16.2-6.4v24.3c0,1.1-0.4,2-1.1,2.8c-0.8,0.8-1.7,1.1-2.8,1.1c-1.1,0-2-0.4-2.8-1.1    c-0.8-0.8-1.1-1.7-1.1-2.8v-41.9C205.4,265.9,207.7,260.2,212.4,255.5z M217.9,283.9c3.2,3.2,7,4.7,11.4,4.7    c4.5,0,8.3-1.6,11.4-4.7s4.7-7,4.7-11.4c0-4.5-1.6-8.3-4.7-11.5s-7-4.8-11.4-4.8c-4.5,0-8.3,1.6-11.4,4.8s-4.7,7.1-4.7,11.5    C213.2,276.9,214.8,280.8,217.9,283.9z"/>
		<path class="st1" d="M307.9,272.2c0,1.1-0.4,2-1.1,2.8c-0.8,0.8-1.7,1.1-2.8,1.1h-35.5c0.9,3.5,2.9,6.4,5.7,8.7    c2.9,2.3,6.2,3.4,9.8,3.4h4.7c1.1,0,2,0.4,2.8,1.1c0.8,0.8,1.1,1.7,1.1,2.7c0,1.1-0.4,2-1.1,2.7c-0.8,0.8-1.7,1.1-2.8,1.1H284    c-6.5,0-12.1-2.3-16.8-7c-4.7-4.6-7-10.2-7-16.8c0-6.6,2.3-12.2,7-16.8s10.3-7,16.7-7c6.5,0,12.2,2.3,16.8,7    S307.9,265.7,307.9,272.2z M284,255.8c-4,0-7.4,1.3-10.3,3.8c-2.9,2.5-4.7,5.7-5.4,9.6h31.6c-0.7-3.9-2.5-7.1-5.5-9.6    C291.3,257.1,287.9,255.8,284,255.8z"/>
		<path class="st1" d="M337.7,296.4c-6.6,0-12.3-2.3-17-7c-4.7-4.7-7-10.3-7-17c0-6.6,2.3-12.3,7-17c4.7-4.7,10.4-7.1,17-7.1    c6.6,0,12.3,2.3,17,7c0.7,0.7,1.1,1.6,1.1,2.8c0,1.1-0.4,2-1.1,2.8c-0.8,0.8-1.7,1.1-2.8,1.1c-1,0-1.9-0.4-2.7-1.2    c-3.2-3.1-7-4.6-11.4-4.6c-4.5,0-8.4,1.6-11.5,4.8c-3.1,3.2-4.7,7-4.7,11.5c0,4.5,1.6,8.3,4.7,11.4s7,4.7,11.4,4.7    c4.5,0,8.3-1.6,11.4-4.7c0.9-0.7,1.8-1.1,2.8-1.1c1.1,0,2,0.4,2.8,1.1c0.8,0.8,1.1,1.7,1.1,2.8c0,1.1-0.4,2-1.2,2.8    C349.9,294.1,344.2,296.4,337.7,296.4z"/>
		<path class="st1" d="M386.8,288.2c1.1,0,2,0.4,2.7,1.1c0.7,0.8,1.1,1.7,1.1,2.7c0,1.1-0.4,2-1.1,2.7c-0.8,0.8-1.7,1.1-2.7,1.1    c-6.5,0-12.2-2.3-16.8-7s-7-10.2-7-16.8v-29.8c0-1.1,0.4-2,1.1-2.8c0.8-0.8,1.7-1.1,2.8-1.1c1.1,0,2,0.4,2.8,1.1    c0.8,0.8,1.1,1.7,1.1,2.8v6.2h5.3c1.1,0,2,0.4,2.9,1.1c0.8,0.8,1.2,1.7,1.2,2.7c0,1.1-0.4,2-1.1,2.7c-0.8,0.8-1.7,1.1-2.8,1.1    h-5.5v15.9c0,4.4,1.6,8.2,4.7,11.3C378.7,286.7,382.5,288.2,386.8,288.2z"/>
		<path class="st1" d="M459.8,272.2c0,1.1-0.4,2-1.1,2.8c-0.8,0.8-1.7,1.1-2.8,1.1h-35.5c0.9,3.5,2.9,6.4,5.7,8.7    c2.9,2.3,6.2,3.4,9.8,3.4h4.7c1.1,0,2,0.4,2.8,1.1c0.8,0.8,1.1,1.7,1.1,2.7c0,1.1-0.4,2-1.1,2.7c-0.8,0.8-1.7,1.1-2.8,1.1h-4.7    c-6.5,0-12.1-2.3-16.8-7c-4.7-4.6-7-10.2-7-16.8c0-6.6,2.3-12.2,7-16.8s10.3-7,16.7-7c6.5,0,12.2,2.3,16.8,7    S459.8,265.7,459.8,272.2z M435.9,255.8c-4,0-7.4,1.3-10.3,3.8c-2.9,2.5-4.7,5.7-5.4,9.6h31.6c-0.7-3.9-2.5-7.1-5.5-9.6    C443.2,257.1,439.8,255.8,435.9,255.8z"/>
		<path class="st1" d="M473.4,294.9c-0.8,0.8-1.7,1.1-2.8,1.1c-1.1,0-2-0.4-2.8-1.1c-0.8-0.8-1.1-1.7-1.1-2.8v-21.8    c0-6,2.1-11.2,6.4-15.4c4.3-4.2,9.6-6.3,15.8-6.3c6.1,0,11.3,2.1,15.7,6.4c4.3,4.3,6.5,9.4,6.5,15.3v21.8c0,1.1-0.4,2-1.1,2.8    c-0.8,0.8-1.7,1.1-2.8,1.1c-1.1,0-2-0.4-2.8-1.1c-0.8-0.8-1.1-1.7-1.1-2.8v-21.8c0-3.8-1.4-7.1-4.2-9.9s-6.2-4.1-10.2-4.1    c-4.1,0-7.5,1.4-10.3,4.1c-2.8,2.7-4.1,6-4.1,9.9v21.8C474.5,293.2,474.2,294.1,473.4,294.9z"/>
		<path class="st1" d="M566.4,272.2c0,1.1-0.4,2-1.1,2.8c-0.8,0.8-1.7,1.1-2.8,1.1h-35.5c0.9,3.5,2.9,6.4,5.7,8.7    c2.9,2.3,6.2,3.4,9.8,3.4h4.7c1.1,0,2,0.4,2.8,1.1c0.8,0.8,1.1,1.7,1.1,2.7c0,1.1-0.4,2-1.1,2.7c-0.8,0.8-1.7,1.1-2.8,1.1h-4.7    c-6.5,0-12.1-2.3-16.8-7c-4.7-4.6-7-10.2-7-16.8c0-6.6,2.3-12.2,7-16.8s10.3-7,16.7-7c6.5,0,12.2,2.3,16.8,7    S566.4,265.7,566.4,272.2z M542.5,255.8c-4,0-7.4,1.3-10.3,3.8c-2.9,2.5-4.7,5.7-5.4,9.6h31.6c-0.7-3.9-2.5-7.1-5.5-9.6    C549.8,257.1,546.4,255.8,542.5,255.8z"/>
		<path class="st1" d="M580,294.9c-0.8,0.8-1.7,1.1-2.8,1.1c-1.1,0-2-0.4-2.8-1.1c-0.8-0.8-1.1-1.7-1.1-2.8v-21.8    c0-6,2.1-11.2,6.4-15.4c4.3-4.2,9.6-6.3,15.8-6.3c1.1,0,2,0.4,2.8,1.1c0.8,0.8,1.1,1.7,1.1,2.7c0,1.1-0.4,2-1.1,2.7    c-0.8,0.8-1.7,1.1-2.8,1.1c-4,0-7.5,1.4-10.3,4.1s-4.2,6-4.2,9.9v21.8C581.1,293.2,580.7,294.1,580,294.9z"/>
		<path class="st1" d="M611.3,282.3c-1.7,0.7-2.5,2-2.5,3.9c0,1.4,0.5,2.4,1.5,3.2c1.9-1.1,4.1-1.6,6.5-1.6h3.5c3.7,0,6.8,1.3,9.4,4    s4,5.8,4,9.4c0,3.7-1.3,6.9-3.9,9.5c-2.6,2.6-5.8,4-9.5,4h-3.5c-3.7,0-6.9-1.3-9.5-3.9c-2.6-2.6-4-5.8-4-9.6    c0-2.7,0.8-5.3,2.5-7.8c-2-2-3-4.4-3-7.2c0-3.3,1.3-6,3.9-8.1c-2.6-3.2-3.9-6.9-3.9-11.1c0-5,1.7-9.3,5.2-12.8    c3.5-3.5,7.8-5.3,12.8-5.3c1.7,0,3.5,0.3,5.4,0.8c0.9-1.9,2.2-3.5,4.1-4.7c1.8-1.2,3.9-1.8,6.1-1.8c0.8,0,1.5,0.3,2,0.8    c0.5,0.5,0.8,1.2,0.8,2s-0.3,1.5-0.8,2.1c-0.5,0.6-1.2,0.9-2,0.9c-2.5,0-4.1,1.2-5.1,3.5c5,3.5,7.5,8.4,7.5,14.7    c0,5-1.8,9.2-5.3,12.7s-7.8,5.3-12.7,5.3C617.3,285,614.2,284.1,611.3,282.3z M620.2,294.5h-3.4c-1.9,0-3.5,0.7-4.8,2    c-1.3,1.3-2,2.9-2,4.8c0,1.9,0.7,3.5,2,4.8c1.3,1.3,2.9,2,4.8,2h3.4c1.9,0,3.5-0.7,4.8-2c1.3-1.3,2-2.9,2-4.8c0-1.9-0.7-3.5-2-4.8    C623.7,295.1,622.1,294.5,620.2,294.5z M620.8,256.5c-2.9,0-5.3,1-7.3,3c-2,2-3,4.5-3,7.4c0,2.8,1,5.2,3,7.3c2,2,4.4,3,7.3,3    c2.8,0,5.2-1,7.3-3c2-2,3-4.4,3-7.3c0-2.9-1-5.3-3-7.4C626.1,257.6,623.6,256.5,620.8,256.5z"/>
		<path class="st1" d="M683.6,249.7c0.8-0.8,1.7-1.1,2.8-1.1c1.1,0,2,0.4,2.8,1.1c0.8,0.8,1.1,1.7,1.1,2.8v41.9    c0,6.5-2.3,12.2-7,16.8c-4.7,4.7-10.3,7-16.9,7c-1.1,0-2-0.4-2.8-1.1c-0.8-0.8-1.1-1.7-1.1-2.8c0-1.2,0.4-2.1,1.1-2.8    c0.8-0.7,1.7-1.1,2.8-1.1c4.5,0,8.3-1.6,11.4-4.7c3.1-3.2,4.7-6.9,4.7-11.3v-3.1c-4.2,3.4-9,5.2-14.3,5.2    c-6.3,0-11.5-2.1-15.8-6.3c-4.3-4.2-6.4-9.3-6.4-15.4v-22.3c0-1.1,0.4-2,1.1-2.8c0.8-0.8,1.7-1.1,2.7-1.1c1.1,0,2,0.4,2.7,1.1    c0.8,0.8,1.1,1.7,1.1,2.8v22.3c0,3.9,1.4,7.2,4.2,9.9c2.8,2.7,6.2,4,10.3,4c4,0,7.4-1.4,10.2-4.1s4.2-6,4.2-9.8v-22.3    C682.5,251.4,682.9,250.5,683.6,249.7z"/>
	</g>
</g>
</svg>