<?xml version="1.0" encoding="utf-8"?>
<!-- Generator: Adobe Illustrator 28.3.0, SVG Export Plug-In . SVG Version: 6.00 Build 0)  -->
<svg version="1.1" id="Layer_1" xmlns="http://www.w3.org/2000/svg" xmlns:xlink="http://www.w3.org/1999/xlink" x="0px" y="0px"
	 viewBox="0 0 816.9 141.2" style="enable-background:new 0 0 816.9 141.2;" xml:space="preserve">
<style type="text/css">
	.st0{fill:#429D82;}
</style>
<g>
	<path d="M374,69.9c-3.8-3.1-9.3-5-16.4-5.7l-12.1-1.1c-4.5-0.4-7.9-1.5-10-3.2c-2.1-1.7-3.2-4.3-3.2-7.6c0-4,1.5-7,4.4-9.2
		c2.9-2.1,7.1-3.2,12.4-3.2c6.1,0,11.7,1.4,16.8,4.1c1.8,1,3.2,1.5,4.2,1.5c1.3,0,2.5-0.5,3.5-1.6c0.8-1,1.2-2,1.2-3
		c0-1.1-0.3-2-0.8-2.8c-0.7-0.9-2-1.8-3.7-2.8c-6.2-3.2-13.2-4.7-21-4.7c-8.2,0-14.9,2-20,6c-5.1,4-7.7,9.4-7.7,16.1
		c0,12.1,7.5,18.9,22.5,20.2l12.4,1.1c4.3,0.4,7.4,1.5,9.5,3.3c2,1.8,3.1,4.3,3.1,7.7c0,4.4-1.7,7.7-5.2,9.9
		c-3.4,2.2-8.4,3.3-14.9,3.3c-8,0-14.6-1.9-19.8-5.7c-1.9-1.4-3.6-2.1-5-2.1c-1.3,0-2.4,0.4-3.2,1.1c-1.2,1.1-1.8,2.3-1.8,3.8
		c0,1.8,1.2,3.5,3.7,5.2c6.9,4.8,15.7,7.2,26.3,7.2c9.2,0,16.7-2,22.3-6.1c5.6-4.1,8.4-9.7,8.4-16.8C379.7,77.9,377.8,73,374,69.9z"
		/>
	<path d="M424.4,40c1.9,0,3.3-0.3,4.1-0.8c1.2-0.7,1.8-1.9,1.8-3.5c0-1.6-0.6-2.8-1.8-3.5c-0.8-0.5-2.1-0.8-4.1-0.8h-11.1V15.2
		c0-2.3-0.3-4.1-1-5.1c-1-1.6-2.5-2.4-4.6-2.4c-2.1,0-3.6,0.8-4.6,2.4c-0.7,1.1-1,2.8-1,5.1v16.1h-5.3c-1.9,0-3.3,0.3-4.1,0.8
		c-1.2,0.7-1.8,1.9-1.8,3.5c0,1.6,0.6,2.8,1.8,3.5c0.8,0.5,2.1,0.8,4.1,0.8h5.3v46.5c0,5.9,1.7,10.7,5,14.5c3.3,3.8,8,5.7,14.2,5.7
		h2c2.3,0,4-0.3,5-0.9c1.4-0.9,2.1-2.2,2.1-3.9c0-1.7-0.7-3-2.1-3.9c-1-0.6-2.7-0.9-5-0.9c-6.6,0-9.9-3.6-9.9-10.9V40H424.4z"/>
	<path d="M499,39c-5.7-5.7-12.9-8.6-21.6-8.6c-8.7,0-15.9,2.9-21.6,8.6c-3.6,3.7-6.1,7.9-7.3,12.8c-1.3,4.8-1.9,10.6-1.9,17.2
		c0,6.6,0.6,12.4,1.9,17.2c1.3,4.8,3.7,9.1,7.3,12.8c5.7,5.7,12.9,8.6,21.6,8.6c8.7,0,15.9-2.9,21.6-8.6c3.6-3.7,6.1-7.9,7.3-12.8
		c1.3-4.8,1.9-10.6,1.9-17.2c0-6.6-0.6-12.4-1.9-17.2C505.1,47,502.6,42.7,499,39z M491,92.2c-3.6,3.6-8.2,5.4-13.6,5.4
		c-5.5,0-10-1.8-13.6-5.4c-4.1-4.1-6.1-11.8-6.1-23.2c0-11.3,2-19,6.1-23.1c3.7-3.7,8.2-5.5,13.6-5.5c5.4,0,9.9,1.8,13.6,5.5
		c4.1,4.1,6.1,11.8,6.1,23.1C497.1,80.4,495,88.1,491,92.2z"/>
	<path d="M577.2,34.1c-3.8-2.4-8.3-3.6-13.5-3.6c-4.1,0-8.1,0.9-11.8,2.7c-3.7,1.8-6.7,4.2-8.8,7.3v-2.2c0-2.3-0.3-4.1-1-5.1
		c-1-1.6-2.5-2.4-4.6-2.4c-2.1,0-3.6,0.8-4.6,2.4c-0.7,1.1-1,2.8-1,5.1v61.6c0,2.3,0.3,4.1,1,5.1c1,1.6,2.5,2.4,4.6,2.4
		c2.1,0,3.6-0.8,4.6-2.4c0.7-1.1,1-2.8,1-5.1V60.7c0-6,1.7-10.8,5-14.6c3.3-3.8,7.7-5.7,13.2-5.7c3.3,0,6.4,0.9,9.4,2.7
		c2.4,1.4,4.2,2.1,5.3,2.1c1.5,0,2.8-0.5,3.8-1.6c1.1-1.1,1.6-2.4,1.6-3.9C581.4,37.7,580,35.9,577.2,34.1z"/>
	<path d="M641.1,36.9c-5-4.3-12.3-6.4-22-6.4c-7.8,0-14.2,1.6-19.4,4.9c-4.8,3.2-7.2,6-7.2,8.4c0,1.3,0.5,2.4,1.4,3.5
		c0.9,0.9,2,1.4,3.4,1.4c1.6,0,3.2-0.7,4.7-2c2.7-2.4,5.2-4.1,7.7-5.1c2.5-1,5.6-1.5,9.3-1.5c6.5,0,11.2,1.4,14.1,4.3
		c2.9,2.9,4.4,7.2,4.4,13.1v6.1h-22.8c-8.1,0-14.5,2-19.1,5.9c-4.6,3.9-6.9,9.2-6.9,15.9c0,6.3,1.9,11.4,5.7,15.4
		c2.4,2.4,5.3,4.1,8.6,5.2c3.3,1.1,7.6,1.6,12.8,1.6c4.9,0,9-0.6,12.2-1.8c3.2-1.2,6.4-3.2,9.4-6.2v0.2c0,2.3,0.3,4.1,1,5.1
		c1,1.6,2.5,2.4,4.6,2.4c2.1,0,3.6-0.8,4.6-2.4c0.7-1.1,1-2.8,1-5.1V55.6C648.6,47.4,646.1,41.1,641.1,36.9z M637.5,80
		c0,6.2-1.3,10.5-3.9,13.1c-2.1,2-4.5,3.4-7.2,4.1c-2.6,0.7-5.8,1-9.4,1c-11.6,0-17.4-4.3-17.4-12.9c0-4.3,1.4-7.6,4.1-9.9
		c2.8-2.3,6.8-3.4,12.2-3.4h21.6V80z"/>
	<path d="M725.8,30.8c-2.1,0-3.6,0.8-4.6,2.4c-0.7,1.1-1,2.8-1,5.1v2c-2.9-3.7-6-6.3-9.3-7.7c-3.3-1.4-7.3-2.1-11.8-2.1
		c-3.8,0-7.4,0.6-10.6,1.8c-3.2,1.2-5.9,2.8-7.9,4.8c-3.5,3.5-5.9,7.8-7.2,13.1c-1.3,5.3-2,11.3-2,18.3c0,6.9,0.7,13,2,18.3
		c1.3,5.3,3.7,9.6,7.2,13.1c2,2,4.7,3.7,7.9,4.9c3.2,1.2,6.7,1.8,10.5,1.8c4.4,0,8.4-0.7,11.9-2.2c3.5-1.5,6.6-4.1,9.4-7.8v12
		c0,6.8-1.7,12.3-5.2,16.6s-8.7,6.4-15.6,6.4c-5.7,0-10.5-1.5-14.2-4.5c-2.4-1.9-4.3-2.8-5.6-2.8c-1.1,0-2.2,0.5-3.2,1.4
		c-1,0.9-1.5,2.2-1.5,3.6c0,2.5,2.7,5.3,8,8.3c4.5,2.4,10.1,3.7,16.8,3.7c9.8,0,17.5-3,23.3-9c5.7-6,8.6-13.8,8.6-23.3V38.3
		c0-2.3-0.3-4.1-1-5.1C729.4,31.6,727.9,30.8,725.8,30.8z M719.7,76.8c-0.2,2.4-0.7,4.9-1.5,7.5c-0.8,2.6-1.8,4.7-3.1,6.4
		c-1.3,1.7-3.1,3.1-5.4,4.1c-2.3,1.1-5.1,1.6-8.2,1.6c-3.2,0-5.9-0.5-8.2-1.6c-2.3-1.1-4.1-2.4-5.5-4.1c-1.3-1.7-2.4-3.8-3.2-6.3
		c-0.8-2.5-1.3-5-1.6-7.5c-0.3-2.4-0.4-5.2-0.4-8.3c0-3.1,0.1-5.9,0.4-8.3c0.3-2.4,0.8-5,1.6-7.5c0.8-2.6,1.8-4.7,3.2-6.4
		c1.3-1.7,3.1-3.1,5.5-4.2c2.3-1.1,5.1-1.6,8.2-1.6c3.2,0,5.9,0.5,8.2,1.6c2.3,1.1,4.1,2.5,5.4,4.2c1.3,1.7,2.3,3.8,3.1,6.4
		c0.8,2.6,1.3,5.1,1.5,7.5c0.2,2.4,0.3,5.2,0.3,8.3C720.1,71.6,720,74.4,719.7,76.8z"/>
	<path d="M815.3,70.4c1-1,1.5-2.7,1.5-5c-0.1-10.6-2.9-19-8.4-25.4c-5.5-6.3-13-9.5-22.5-9.5c-9.6,0-17.2,3.4-22.8,10.1
		c-5.5,6.7-8.3,16.2-8.3,28.5c0,12.9,2.9,22.6,8.7,29c5.8,6.4,13.9,9.6,24.2,9.6c7.6,0,13.8-1.5,18.7-4.4c5.2-3.2,7.8-6.1,7.8-8.6
		c0-1.3-0.5-2.4-1.5-3.4c-1-1-2.1-1.5-3.3-1.5c-1.3,0-3.1,0.9-5.2,2.7c-4.3,3.6-9.7,5.4-16.1,5.4c-7.2,0-12.7-2.3-16.6-6.8
		c-3.9-4.5-5.8-11-5.8-19.3h44.4C812.7,71.9,814.4,71.4,815.3,70.4z M766,63.4c0.2-4.8,1-8.9,2.4-12.2c1.4-3.4,3.6-6.1,6.8-8.2
		c3.1-2,6.7-3.1,10.8-3.1c4.1,0,7.7,1,10.8,3c3.1,2,5.4,4.8,6.8,8.2c1.4,3.4,2.2,7.4,2.4,12.2H766z"/>
</g>
<g>
	<path class="st0" d="M68,1.8c-12.3,0-22.9,2-31.5,5.9c-8.7,3.9-15.8,9.2-21.2,15.6C9.8,29.7,5.9,37.1,3.5,45.2
		C1.2,53.1,0,61.4,0,69.7v62.9c0,2.8,2.2,5,5,5h12.6c2.8,0,5-2.2,5-5V69.7c0-3.9,0.6-8.6,1.7-14c1-5.1,3.2-10.1,6.3-14.7
		c3.1-4.5,7.6-8.5,13.4-11.7c5.8-3.2,13.8-4.8,23.9-4.8c2.8,0,5-2.2,5-5V6.8C73,4,70.7,1.8,68,1.8z"/>
	<path class="st0" d="M205,20.6c-6-6.3-13.2-11.3-21.6-15C175.1,1.9,165.9,0,156.2,0c-9.8,0-18.9,1.9-27.2,5.6
		c-8.2,3.7-15.4,8.7-21.5,15c-6.1,6.2-10.9,13.6-14.3,21.8C89.7,50.6,88,59.3,88,68.2c0,8.5,1.6,16.9,4.6,25
		c3.1,8.2,7.6,15.5,13.5,21.9c5.9,6.3,13.1,11.5,21.4,15.4c8.4,3.9,18,5.9,28.7,5.9c2.8,0,5-2.2,5-5v-12.6c0-2.8-2.2-5-5-5
		c-4.5,0-9.5-0.9-14.8-2.8c-5.3-1.8-10.3-4.6-14.9-8.4c-4.5-3.7-8.3-8.5-11.4-14.2c-3-5.6-4.5-12.4-4.5-20.2
		c0-6.3,1.3-12.3,3.7-17.8c2.5-5.6,5.9-10.4,10.1-14.5c4.2-4.1,9-7.4,14.5-9.7c5.4-2.3,11.2-3.5,17.2-3.5c7.1,0,13.5,1.4,19,4.1
		c5.7,2.9,10.6,6.4,14.6,10.5c4,4.1,7,8.5,9,13.1c1,2.3,1.8,4.5,2.3,6.5h-44.8c-2.8,0-5,2.2-5,5v12.4c0,2.8,2.2,5,5,5h63.2
		c2.8,0,5-2.2,5-5v-6.1c0-8.9-1.7-17.6-5.2-25.8C215.8,34.2,211,26.9,205,20.6z"/>
	<circle class="st0" cx="262.6" cy="27.4" r="12.4"/>
	<circle class="st0" cx="262.6" cy="108.2" r="12.4"/>
</g>
<g>
</g>
<g>
</g>
<g>
</g>
<g>
</g>
<g>
</g>
<g>
</g>
</svg>
