<?xml version="1.0" encoding="utf-8"?>
<!-- Generator: Adobe Illustrator 28.3.0, SVG Export Plug-In . SVG Version: 6.00 Build 0)  -->
<svg version="1.1" id="Layer_1" xmlns="http://www.w3.org/2000/svg" xmlns:xlink="http://www.w3.org/1999/xlink" x="0px" y="0px"
	 viewBox="0 0 1009.9 163.3" style="enable-background:new 0 0 1009.9 163.3;" xml:space="preserve">
<style type="text/css">
	.st0{fill:#429D82;}
	.st1{fill:#010101;}
</style>
<g>
	<path class="st0" d="M72.3,17.1c-13.1,0-24.4,2.1-33.5,6.3c-9.2,4.2-16.8,9.8-22.6,16.6c-5.7,6.8-9.9,14.7-12.5,23.3
		C1.2,71.7,0,80.5,0,89.4v66.9c0,2.9,2.4,5.3,5.3,5.3h13.4c3,0,5.3-2.4,5.3-5.3V89.4c0-4.1,0.6-9.1,1.8-14.9
		c1.1-5.4,3.4-10.7,6.7-15.7c3.3-4.8,8.1-9,14.3-12.4c6.2-3.4,14.7-5.1,25.4-5.1c3,0,5.3-2.4,5.3-5.3V22.4
		C77.6,19.5,75.2,17.1,72.3,17.1z"/>
	<path class="st0" d="M218.1,37.2c-6.4-6.7-14.1-12-22.9-16c-8.9-4-18.7-6-29.1-6c-10.4,0-20.1,2-28.9,6
		c-8.7,3.9-16.4,9.3-22.9,15.9c-6.4,6.6-11.6,14.4-15.2,23.2c-3.7,8.8-5.5,18-5.5,27.5c0,9,1.7,18,4.9,26.6
		c3.3,8.7,8.1,16.5,14.4,23.3c6.3,6.7,13.9,12.3,22.8,16.4c8.9,4.2,19.2,6.3,30.5,6.3c3,0,5.3-2.4,5.3-5.3v-13.4
		c0-2.9-2.4-5.3-5.3-5.3c-4.8,0-10.1-1-15.7-2.9c-5.6-1.9-11-4.9-15.8-8.9c-4.8-3.9-8.9-9-12.1-15.2c-3.2-6-4.8-13.2-4.8-21.4
		c0-6.7,1.3-13.1,4-18.9c2.7-5.9,6.3-11.1,10.7-15.5c4.4-4.3,9.6-7.8,15.4-10.3c5.8-2.5,11.9-3.7,18.3-3.7c7.5,0,14.3,1.5,20.2,4.4
		c6.1,3,11.3,6.8,15.5,11.2c4.2,4.4,7.4,9,9.6,13.9c1.1,2.5,1.9,4.8,2.4,6.9h-47.7c-3,0-5.3,2.4-5.3,5.3v13.2c0,2.9,2.4,5.3,5.3,5.3
		h67.2c3,0,5.3-2.4,5.3-5.3v-6.5c0-9.4-1.9-18.7-5.5-27.5C229.5,51.6,224.4,43.8,218.1,37.2z"/>
	
		<ellipse transform="matrix(0.3827 -0.9239 0.9239 0.3827 131.4344 285.4327)" class="st0" cx="279.3" cy="44.4" rx="13.2" ry="13.2"/>
	
		<ellipse transform="matrix(0.7071 -0.7071 0.7071 0.7071 -10.3252 235.6626)" class="st0" cx="279.3" cy="130.3" rx="13.2" ry="13.2"/>
</g>
<g>
	<path class="st1" d="M339.7,64.1c1.4,0,2.5-0.5,3.1-1.5c0.5-0.7,0.7-1.8,0.7-3.3V34.1c0-3.8,1.1-7,3.4-9.4c2.3-2.4,5.3-3.6,9-3.6
		c2.2,0,4.4,0.6,6.4,1.7c1.7,0.9,2.9,1.4,3.6,1.4c1,0,1.9-0.3,2.6-1c0.7-0.7,1.1-1.5,1.1-2.5c0-1.3-1-2.5-2.9-3.6
		c-2.6-1.5-5.7-2.3-9.2-2.3c-2.8,0-5.5,0.6-8.1,1.7c-2.6,1.2-4.6,2.7-6,4.7v-1.4c0-1.5-0.2-2.6-0.7-3.3c-0.7-1-1.7-1.5-3.1-1.5
		c-1.4,0-2.5,0.5-3.1,1.5c-0.5,0.7-0.7,1.8-0.7,3.3v39.7c0,1.5,0.2,2.6,0.7,3.3C337.2,63.6,338.2,64.1,339.7,64.1z"/>
	<path class="st1" d="M396.7,64.3c5.2,0,9.5-0.9,12.8-2.8c3.6-2.1,5.3-3.9,5.3-5.5c0-0.8-0.3-1.5-1-2.2c-0.7-0.6-1.4-0.9-2.2-0.9
		c-0.9,0-2.1,0.6-3.6,1.7c-2.9,2.3-6.6,3.5-11,3.5c-4.9,0-8.7-1.5-11.3-4.4c-2.6-2.9-3.9-7.1-3.9-12.4h30.4c1.6,0,2.7-0.3,3.3-0.9
		c0.7-0.7,1-1.7,1-3.3c-0.1-6.8-2-12.2-5.7-16.3c-3.8-4.1-8.9-6.1-15.4-6.1c-6.6,0-11.8,2.2-15.5,6.5c-3.8,4.3-5.7,10.4-5.7,18.4
		c0,8.3,2,14.5,6,18.7C384.1,62.3,389.6,64.3,396.7,64.3z M383.3,28c0.9-2.2,2.5-4,4.6-5.3c2.1-1.3,4.6-2,7.4-2s5.2,0.6,7.4,1.9
		c2.1,1.3,3.7,3.1,4.7,5.3c0.9,2.2,1.5,4.8,1.6,7.9h-27.3C381.9,32.8,382.4,30.2,383.3,28z"/>
	<path class="st1" d="M469.3,49.5c0-4.3-1.3-7.5-3.9-9.5c-2.6-2-6.4-3.2-11.2-3.6l-8.3-0.7c-3.1-0.3-5.4-1-6.8-2.1
		c-1.5-1.1-2.2-2.8-2.2-4.9c0-2.6,1-4.5,3-5.9s4.8-2.1,8.5-2.1c4.1,0,8,0.9,11.5,2.6c1.2,0.6,2.2,0.9,2.9,0.9c0.9,0,1.7-0.3,2.4-1
		c0.6-0.7,0.8-1.3,0.8-1.9c0-0.7-0.2-1.3-0.6-1.8c-0.5-0.6-1.3-1.2-2.6-1.8c-4.2-2-9-3.1-14.4-3.1c-5.6,0-10.2,1.3-13.7,3.9
		c-3.5,2.6-5.2,6-5.2,10.4c0,7.8,5.1,12.2,15.4,13l8.5,0.7c2.9,0.3,5.1,1,6.5,2.1c1.4,1.1,2.1,2.8,2.1,5c0,2.8-1.2,5-3.5,6.4
		s-5.7,2.1-10.2,2.1c-5.4,0-9.9-1.2-13.5-3.6c-1.3-0.9-2.5-1.4-3.4-1.4c-0.9,0-1.6,0.2-2.2,0.7c-0.8,0.7-1.2,1.5-1.2,2.5
		c0,1.2,0.8,2.3,2.5,3.4c4.7,3.1,10.7,4.6,18,4.6c6.3,0,11.4-1.3,15.2-3.9C467.4,57.7,469.3,54.1,469.3,49.5z"/>
	<path class="st1" d="M506.2,14.6c-3.1,0-5.8,0.5-8.1,1.4c-2.3,0.9-4.4,2.6-6.5,5v-1.4c0-1.5-0.2-2.6-0.7-3.3
		c-0.7-1-1.7-1.5-3.1-1.5c-1.4,0-2.5,0.5-3.1,1.5c-0.5,0.7-0.7,1.8-0.7,3.3V81c0,1.5,0.2,2.6,0.7,3.3c0.7,1,1.7,1.5,3.1,1.5
		c1.4,0,2.5-0.5,3.1-1.5c0.5-0.7,0.7-1.8,0.7-3.3V58.1c2,2.4,4.2,4,6.5,4.9s5,1.3,8,1.3c5.4,0,9.5-1.4,12.5-4.2
		c4.2-4,6.4-10.9,6.4-20.6c0-9.7-2.1-16.6-6.4-20.6C515.8,16,511.6,14.6,506.2,14.6z M517.3,45.1c-0.2,1.6-0.5,3.3-1.1,5
		c-0.5,1.7-1.3,3.1-2.2,4.2c-0.9,1.1-2.2,2-3.8,2.7c-1.6,0.7-3.5,1-5.6,1c-2.2,0-4-0.3-5.6-1s-2.9-1.6-3.8-2.7
		c-0.9-1.1-1.6-2.5-2.2-4.2c-0.5-1.7-0.9-3.3-1.1-5c-0.2-1.6-0.3-3.5-0.3-5.6c0-2.1,0.1-4,0.3-5.6c0.2-1.6,0.5-3.3,1.1-5
		c0.5-1.7,1.3-3.1,2.2-4.2c0.9-1.1,2.2-2,3.8-2.7s3.5-1,5.6-1c2.2,0,4,0.3,5.6,1c1.6,0.7,2.9,1.6,3.8,2.7c0.9,1.1,1.6,2.5,2.2,4.2
		c0.5,1.7,0.9,3.3,1.1,5c0.2,1.6,0.3,3.5,0.3,5.6C517.5,41.6,517.4,43.4,517.3,45.1z"/>
	<path class="st1" d="M579.1,56c0-0.8-0.3-1.5-1-2.2c-0.7-0.6-1.4-0.9-2.2-0.9c-0.9,0-2.1,0.6-3.6,1.7c-2.9,2.3-6.6,3.5-11,3.5
		c-4.9,0-8.7-1.5-11.3-4.4c-2.6-2.9-3.9-7.1-3.9-12.4h30.4c1.6,0,2.7-0.3,3.3-0.9c0.7-0.7,1-1.7,1-3.3c-0.1-6.8-2-12.2-5.7-16.3
		c-3.8-4.1-8.9-6.1-15.4-6.1c-6.6,0-11.8,2.2-15.5,6.5c-3.8,4.3-5.7,10.4-5.7,18.4c0,8.3,2,14.5,6,18.7c4,4.1,9.5,6.2,16.6,6.2
		c5.2,0,9.5-0.9,12.8-2.8C577.3,59.4,579.1,57.6,579.1,56z M547.6,28c0.9-2.2,2.5-4,4.6-5.3c2.1-1.3,4.6-2,7.4-2
		c2.8,0,5.2,0.6,7.4,1.9s3.7,3.1,4.6,5.3c0.9,2.2,1.5,4.8,1.6,7.9H546C546.1,32.8,546.7,30.2,547.6,28z"/>
	<path class="st1" d="M616.4,64.3c4.8,0,9-1.3,12.5-3.9c1.3-0.9,2.2-1.7,2.8-2.4s0.9-1.4,0.9-2.3c0-0.9-0.4-1.6-1.1-2.3
		c-0.7-0.6-1.5-0.9-2.4-0.9c-0.9,0-2.2,0.6-3.7,1.9c-1.6,1.3-3.1,2.2-4.4,2.7c-1.4,0.5-2.9,0.8-4.6,0.8c-5.1,0-9-1.8-11.8-5.4
		c-1.2-1.6-2-3.4-2.6-5.4c-0.5-2-0.8-4.5-0.8-7.6c0-3.1,0.3-5.6,0.8-7.6c0.5-2,1.4-3.8,2.6-5.4c2.7-3.6,6.6-5.4,11.8-5.4
		c1.7,0,3.2,0.3,4.6,0.8c1.3,0.5,2.8,1.4,4.5,2.7c1.6,1.2,2.8,1.9,3.7,1.9c0.9,0,1.7-0.3,2.4-0.9c0.7-0.7,1.1-1.5,1.1-2.3
		c0-0.8-0.3-1.5-0.8-2.1c-0.5-0.6-1.5-1.4-2.9-2.4c-1.9-1.4-3.8-2.4-5.7-3.1c-2-0.6-4.2-0.9-6.8-0.9c-6.8,0-12.3,2.1-16.5,6.4
		c-4.2,4.3-6.2,10.4-6.2,18.5c0,8,2.1,14.2,6.2,18.4C604.1,62.2,609.6,64.3,616.4,64.3z"/>
	<path class="st1" d="M664.4,20.7c1.3,0,2.2-0.2,2.8-0.5c0.8-0.5,1.3-1.2,1.3-2.3c0-1.1-0.4-1.8-1.3-2.3c-0.5-0.3-1.4-0.5-2.8-0.5
		h-7.6V4.8c0-1.5-0.2-2.6-0.7-3.3c-0.7-1-1.7-1.5-3.1-1.5c-1.4,0-2.5,0.5-3.1,1.5c-0.5,0.7-0.7,1.8-0.7,3.3v10.4h-3.6
		c-1.3,0-2.2,0.2-2.8,0.5c-0.8,0.5-1.3,1.2-1.3,2.3c0,1.1,0.4,1.8,1.3,2.3c0.5,0.3,1.4,0.5,2.8,0.5h3.6v30c0,3.8,1.1,6.9,3.4,9.3
		c2.3,2.4,5.5,3.7,9.7,3.7h1.4c1.6,0,2.7-0.2,3.4-0.6c0.9-0.6,1.4-1.4,1.4-2.5c0-1.1-0.5-2-1.4-2.5c-0.7-0.4-1.8-0.6-3.4-0.6
		c-4.5,0-6.8-2.3-6.8-7V20.7H664.4z"/>
	<path class="st1" d="M727.1,14.6c-6.6,0-11.8,2.2-15.5,6.5c-3.8,4.3-5.7,10.4-5.7,18.4c0,8.3,2,14.5,6,18.7c4,4.1,9.5,6.2,16.6,6.2
		c5.2,0,9.5-0.9,12.8-2.8c3.6-2.1,5.3-3.9,5.3-5.5c0-0.8-0.3-1.5-1-2.2c-0.7-0.6-1.4-0.9-2.2-0.9c-0.9,0-2.1,0.6-3.6,1.7
		c-2.9,2.3-6.6,3.5-11,3.5c-4.9,0-8.7-1.5-11.3-4.4c-2.6-2.9-3.9-7.1-3.9-12.4h30.4c1.6,0,2.7-0.3,3.3-0.9c0.7-0.7,1-1.7,1-3.3
		c-0.1-6.8-2-12.2-5.7-16.3C738.7,16.7,733.6,14.6,727.1,14.6z M713.5,35.9c0.1-3.1,0.7-5.7,1.6-7.9c0.9-2.2,2.5-4,4.6-5.3
		c2.1-1.3,4.6-2,7.4-2c2.8,0,5.2,0.6,7.4,1.9s3.7,3.1,4.6,5.3c0.9,2.2,1.5,4.8,1.6,7.9H713.5z"/>
	<path class="st1" d="M786.1,14.6c-5.9,0-10.7,2-14.4,5.9v-0.9c0-1.5-0.2-2.6-0.7-3.3c-0.7-1-1.7-1.5-3.1-1.5
		c-1.4,0-2.5,0.5-3.1,1.5c-0.5,0.7-0.7,1.8-0.7,3.3v39.6c0,1.5,0.2,2.6,0.7,3.3c0.7,1,1.7,1.5,3.1,1.5c1.4,0,2.5-0.5,3.1-1.5
		c0.5-0.7,0.7-1.8,0.7-3.3V34c0-4.2,1.1-7.4,3.4-9.6c2.3-2.2,5.4-3.3,9.4-3.3s7.1,1.1,9.3,3.3c2.2,2.2,3.3,5.4,3.3,9.6v25.3
		c0,1.5,0.2,2.6,0.7,3.3c0.6,1,1.6,1.5,3.1,1.5c1.4,0,2.5-0.5,3.1-1.5c0.5-0.7,0.7-1.8,0.7-3.3V32.7c0-5.8-1.8-10.3-5.3-13.6
		C796.1,16.1,791.7,14.6,786.1,14.6z"/>
	<path class="st1" d="M841.4,14.6c-6.6,0-11.8,2.2-15.5,6.5c-3.8,4.3-5.7,10.4-5.7,18.4c0,8.3,2,14.5,6,18.7c4,4.1,9.5,6.2,16.6,6.2
		c5.2,0,9.5-0.9,12.8-2.8c3.6-2.1,5.3-3.9,5.3-5.5c0-0.8-0.3-1.5-1-2.2c-0.7-0.6-1.4-0.9-2.2-0.9c-0.9,0-2.1,0.6-3.6,1.7
		c-2.9,2.3-6.6,3.5-11,3.5c-4.9,0-8.7-1.5-11.3-4.4c-2.6-2.9-3.9-7.1-3.9-12.4h30.4c1.6,0,2.7-0.3,3.3-0.9c0.7-0.7,1-1.7,1-3.3
		c-0.1-6.8-2-12.2-5.7-16.3C853,16.7,847.9,14.6,841.4,14.6z M827.8,35.9c0.1-3.1,0.7-5.7,1.6-7.9c0.9-2.2,2.5-4,4.6-5.3
		c2.1-1.3,4.6-2,7.4-2c2.8,0,5.2,0.6,7.4,1.9s3.7,3.1,4.6,5.3c0.9,2.2,1.5,4.8,1.6,7.9H827.8z"/>
	<path class="st1" d="M909.3,17c-2.6-1.5-5.7-2.3-9.2-2.3c-2.8,0-5.5,0.6-8.1,1.7c-2.6,1.2-4.6,2.7-6,4.7v-1.4
		c0-1.5-0.2-2.6-0.7-3.3c-0.7-1-1.7-1.5-3.1-1.5c-1.4,0-2.5,0.5-3.1,1.5c-0.5,0.7-0.7,1.8-0.7,3.3v39.7c0,1.5,0.2,2.6,0.7,3.3
		c0.7,1,1.7,1.5,3.1,1.5c1.4,0,2.5-0.5,3.1-1.5c0.5-0.7,0.7-1.8,0.7-3.3V34.1c0-3.8,1.1-7,3.4-9.4c2.3-2.4,5.3-3.6,9-3.6
		c2.2,0,4.4,0.6,6.4,1.7c1.7,0.9,2.9,1.4,3.6,1.4c1,0,1.9-0.3,2.6-1s1.1-1.5,1.1-2.5C912.1,19.3,911.2,18.1,909.3,17z"/>
	<path class="st1" d="M954,14.8c-1.4,0-2.5,0.5-3.1,1.5c-0.5,0.7-0.7,1.8-0.7,3.3v1.3c-2-2.4-4.1-4-6.3-5c-2.3-0.9-5-1.4-8.1-1.4
		c-2.6,0-5,0.4-7.2,1.1c-2.2,0.8-4,1.8-5.4,3.1c-2.4,2.2-4,5-4.9,8.4c-0.9,3.4-1.4,7.3-1.4,11.8c0,4.5,0.5,8.4,1.4,11.8
		c0.9,3.4,2.5,6.2,4.9,8.4c1.4,1.3,3.2,2.4,5.4,3.2s4.6,1.2,7.2,1.2c3,0,5.7-0.5,8.1-1.4c2.4-1,4.5-2.6,6.4-5v7.7
		c0,4.4-1.2,7.9-3.6,10.7c-2.4,2.8-5.9,4.1-10.7,4.1c-3.9,0-7.1-1-9.7-2.9c-1.7-1.2-2.9-1.8-3.8-1.8c-0.8,0-1.5,0.3-2.2,0.9
		c-0.7,0.6-1,1.4-1,2.3c0,1.6,1.8,3.4,5.4,5.3c3.1,1.6,6.9,2.4,11.4,2.4c6.7,0,12-1.9,15.9-5.8c3.9-3.9,5.9-8.9,5.9-15V19.7
		c0-1.5-0.2-2.6-0.7-3.3C956.5,15.3,955.4,14.8,954,14.8z M949.8,44.5c-0.2,1.6-0.5,3.2-1,4.8c-0.5,1.7-1.3,3-2.1,4.1
		c-0.9,1.1-2.1,2-3.7,2.7s-3.5,1-5.6,1c-2.2,0-4-0.3-5.6-1c-1.6-0.7-2.8-1.6-3.7-2.7c-0.9-1.1-1.6-2.4-2.2-4.1
		c-0.5-1.6-0.9-3.3-1.1-4.8c-0.2-1.6-0.3-3.4-0.3-5.4c0-2,0.1-3.8,0.3-5.4s0.5-3.2,1.1-4.9c0.5-1.7,1.3-3,2.2-4.1
		c0.9-1.1,2.1-2,3.7-2.7c1.6-0.7,3.5-1.1,5.6-1.1c2.2,0,4,0.4,5.6,1.1c1.6,0.7,2.8,1.6,3.7,2.7c0.9,1.1,1.6,2.5,2.1,4.1
		c0.5,1.7,0.9,3.3,1,4.8c0.2,1.6,0.2,3.3,0.2,5.3C950.1,41.1,950,42.9,949.8,44.5z"/>
	<path class="st1" d="M1009.7,17c-0.2-0.6-0.7-1.1-1.4-1.5c-0.7-0.4-1.4-0.6-2.1-0.6c-1,0-1.8,0.3-2.4,0.9c-0.6,0.6-1,1.4-1.4,2.6
		L990,54.1l-12.4-35.8c-0.4-1.1-0.9-2-1.4-2.6c-0.6-0.6-1.3-0.9-2.4-0.9c-0.7,0-1.4,0.2-2.1,0.6c-0.7,0.4-1.1,0.9-1.4,1.5
		c-0.3,0.9-0.2,2,0.3,3.5L986.4,63l-3.2,9.2c-0.8,2.2-1.8,3.7-3,4.6s-2.8,1.3-4.8,1.3c-1.2,0-2.1,0.2-2.8,0.7
		c-0.8,0.6-1.2,1.4-1.2,2.5c0,1,0.4,1.8,1.1,2.5c0.7,0.5,1.8,0.7,3.6,0.7c3.9,0,7-1.1,9.5-3.3c1.5-1.3,2.8-3.3,3.7-5.8l20.2-54.9
		C1009.9,19,1010,17.8,1009.7,17z"/>
	<path class="st1" d="M375.8,129.5c-1.6-1.3-3.4-2.3-5.4-3c-2-0.7-4.8-1.3-8.3-1.9l-8.2-1.2c-2.4-0.3-4.3-0.8-5.7-1.4
		c-1.5-0.6-2.9-1.4-4.2-2.5c-2.3-1.8-3.4-4.6-3.4-8.2c0-3.9,1.4-7,4.2-9.4c2.8-2.3,6.7-3.5,11.6-3.5c3,0,5.6,0.3,7.7,0.9
		s4.4,1.7,6.9,3.3c1.5,0.9,2.8,1.4,3.7,1.4c1,0,1.8-0.4,2.5-1.1c0.6-0.6,0.9-1.3,0.9-2.2c0-1.4-1-2.7-3.1-3.8
		c-3.2-1.9-6.1-3.2-8.7-3.9c-2.6-0.7-5.7-1.1-9.5-1.1c-7.3,0-13.1,1.8-17.4,5.4c-4.3,3.6-6.4,8.4-6.4,14.4c0,5.5,1.9,9.9,5.7,13.1
		c1.8,1.5,3.8,2.7,5.9,3.5c2.1,0.8,4.6,1.4,7.6,1.8l8.7,1.3c2.7,0.4,4.7,0.8,6,1.3c1.3,0.4,2.5,1.2,3.7,2.1c2.4,2,3.6,4.9,3.6,8.8
		c0,4.1-1.6,7.3-4.7,9.6c-3.1,2.3-7.4,3.4-12.9,3.4c-3.7,0-6.8-0.4-9.4-1.2c-2.6-0.8-5.3-2.2-8.1-4.2c-1.4-1.1-2.7-1.6-3.7-1.6
		c-1,0-1.8,0.3-2.5,0.9c-0.7,0.7-1.1,1.5-1.1,2.6c0,1.5,1.1,2.9,3.3,4.3c3.4,2.2,6.7,3.7,9.7,4.6s6.9,1.3,11.4,1.3
		c7.8,0,14-1.8,18.7-5.4c4.7-3.6,7-8.4,7-14.5C382,137.4,380,132.8,375.8,129.5z"/>
	<path class="st1" d="M430.4,119.2c-3.9-3.7-8.8-5.5-14.8-5.5s-10.9,1.8-14.8,5.5c-2.5,2.4-4.1,5.1-5,8.2c-0.9,3.1-1.3,6.8-1.3,11.1
		c0,4.3,0.4,8,1.3,11.1c0.9,3.1,2.5,5.9,5,8.2c3.9,3.7,8.8,5.5,14.8,5.5s10.9-1.8,14.8-5.5c2.5-2.4,4.1-5.1,5-8.2
		c0.9-3.1,1.3-6.8,1.3-11.1c0-4.3-0.4-8-1.3-11.1C434.6,124.3,432.9,121.5,430.4,119.2z M425,153.4c-2.5,2.3-5.6,3.5-9.3,3.5
		c-3.7,0-6.8-1.2-9.3-3.5c-2.8-2.6-4.2-7.6-4.2-14.9c0-7.3,1.4-12.3,4.2-14.9c2.5-2.4,5.6-3.5,9.3-3.5s6.8,1.2,9.3,3.5
		c2.8,2.6,4.2,7.6,4.2,14.9C429.1,145.8,427.7,150.8,425,153.4z"/>
	<path class="st1" d="M470.5,157.1c-0.7-0.4-1.8-0.6-3.4-0.6c-4.5,0-6.8-2.3-6.8-7V97c0-1.5-0.2-2.6-0.7-3.3c-0.7-1-1.7-1.5-3.1-1.5
		c-1.4,0-2.5,0.5-3.1,1.5c-0.5,0.7-0.7,1.8-0.7,3.3v52.7c0,3.8,1.1,6.9,3.4,9.3c2.3,2.4,5.5,3.7,9.7,3.7h1.4c1.6,0,2.7-0.2,3.4-0.6
		c0.9-0.6,1.4-1.4,1.4-2.5S471.4,157.7,470.5,157.1z"/>
	<path class="st1" d="M515.2,117.8c-3.4-2.7-8.4-4.1-15-4.1c-5.3,0-9.7,1.1-13.2,3.2c-3.3,2-4.9,3.8-4.9,5.4c0,0.8,0.3,1.6,0.9,2.3
		c0.6,0.6,1.4,0.9,2.3,0.9c1.1,0,2.2-0.4,3.2-1.3c1.8-1.5,3.6-2.6,5.3-3.3c1.7-0.7,3.8-1,6.4-1c4.4,0,7.6,0.9,9.6,2.8
		c2,1.8,3,4.6,3,8.4v3.9h-15.6c-5.5,0-9.9,1.3-13,3.8c-3.2,2.5-4.7,5.9-4.7,10.2c0,4,1.3,7.3,3.9,9.9c1.6,1.5,3.6,2.7,5.9,3.4
		c2.3,0.7,5.2,1.1,8.8,1.1c3.3,0,6.1-0.4,8.3-1.1c2.2-0.8,4.3-2.1,6.4-4v0.1c0,1.5,0.2,2.6,0.7,3.3c0.7,1,1.7,1.5,3.1,1.5
		s2.5-0.5,3.1-1.5c0.5-0.7,0.7-1.8,0.7-3.3v-28.4C520.4,124.5,518.6,120.5,515.2,117.8z M512.8,145.5c0,4-0.9,6.8-2.7,8.4
		c-1.5,1.3-3.1,2.2-4.9,2.6s-3.9,0.7-6.5,0.7c-7.9,0-11.9-2.8-11.9-8.3c0-2.8,0.9-4.9,2.8-6.4c1.9-1.5,4.6-2.2,8.3-2.2h14.7V145.5z"
		/>
	<path class="st1" d="M569.7,116c-2.6-1.5-5.7-2.3-9.2-2.3c-2.8,0-5.5,0.6-8.1,1.7s-4.6,2.7-6,4.7v-1.4c0-1.5-0.2-2.6-0.7-3.3
		c-0.7-1-1.7-1.5-3.1-1.5c-1.4,0-2.5,0.5-3.1,1.5c-0.5,0.7-0.7,1.8-0.7,3.3v39.7c0,1.5,0.2,2.6,0.7,3.3c0.7,1,1.7,1.5,3.1,1.5
		c1.4,0,2.5-0.5,3.1-1.5c0.5-0.7,0.7-1.8,0.7-3.3v-25.2c0-3.8,1.1-7,3.4-9.4c2.3-2.4,5.3-3.6,9-3.6c2.2,0,4.4,0.6,6.4,1.7
		c1.7,0.9,2.9,1.4,3.6,1.4c1,0,1.9-0.3,2.6-1c0.7-0.7,1.1-1.5,1.1-2.5C572.5,118.3,571.6,117.1,569.7,116z"/>
	<path class="st1" d="M658.3,92.8c-0.7-0.4-1.5-0.6-2.2-0.6c-1,0-1.8,0.3-2.4,0.8c-0.6,0.6-1.1,1.7-1.6,3.3l-14.1,53.1L622.7,96
		c-0.4-1.3-0.9-2.2-1.5-2.8c-0.7-0.7-1.7-1-2.9-1s-2.2,0.3-2.9,1c-0.6,0.6-1.1,1.5-1.5,2.8l-15.4,53.2l-14.1-53.1
		c-0.4-1.6-0.9-2.7-1.6-3.3c-0.6-0.5-1.4-0.8-2.4-0.8c-0.8,0-1.5,0.2-2.2,0.6c-0.7,0.4-1.2,1-1.4,1.7c-0.2,0.7-0.2,1.9,0.3,3.4
		l16.2,60.9c0.4,1.5,1,2.6,1.8,3.3c0.8,0.7,1.8,1.1,3,1.1s2.2-0.4,3-1.1c0.8-0.7,1.4-1.7,1.8-3.3l15.4-52.8l15.4,52.8
		c0.4,1.5,1,2.6,1.8,3.3c0.8,0.7,1.8,1.1,3,1.1c1.2,0,2.2-0.4,3-1.1c0.8-0.7,1.4-1.7,1.8-3.3l16.2-60.9c0.4-1.6,0.5-2.7,0.3-3.4
		C659.5,93.8,659.1,93.2,658.3,92.8z"/>
	<path class="st1" d="M676.8,91.2c-1.4,0-2.6,0.5-3.7,1.4c-1,1-1.5,2.1-1.5,3.4c0,1.3,0.5,2.5,1.5,3.4c1,1,2.2,1.4,3.7,1.4
		c1.4,0,2.6-0.5,3.7-1.4c1-1,1.5-2.1,1.5-3.4c0-1.3-0.5-2.5-1.5-3.4C679.4,91.6,678.2,91.2,676.8,91.2z"/>
	<path class="st1" d="M676.8,113.8c-1.4,0-2.5,0.5-3.1,1.5c-0.5,0.7-0.7,1.8-0.7,3.3v39.6c0,1.5,0.2,2.6,0.7,3.3
		c0.7,1,1.7,1.5,3.1,1.5c1.4,0,2.5-0.5,3.1-1.5c0.5-0.7,0.7-1.8,0.7-3.3v-39.6c0-1.5-0.2-2.6-0.7-3.3
		C679.2,114.3,678.2,113.8,676.8,113.8z"/>
	<path class="st1" d="M721.8,113.6c-5.9,0-10.7,2-14.4,5.9v-0.9c0-1.5-0.2-2.6-0.7-3.3c-0.7-1-1.7-1.5-3.1-1.5
		c-1.4,0-2.5,0.5-3.1,1.5c-0.5,0.7-0.7,1.8-0.7,3.3v39.6c0,1.5,0.2,2.6,0.7,3.3c0.7,1,1.7,1.5,3.1,1.5c1.4,0,2.5-0.5,3.1-1.5
		c0.5-0.7,0.7-1.8,0.7-3.3V133c0-4.2,1.1-7.4,3.4-9.6c2.3-2.2,5.4-3.3,9.4-3.3s7.1,1.1,9.3,3.3c2.2,2.2,3.3,5.4,3.3,9.6v25.3
		c0,1.5,0.2,2.6,0.7,3.3c0.6,1,1.6,1.5,3.1,1.5c1.4,0,2.5-0.5,3.1-1.5c0.5-0.7,0.7-1.8,0.7-3.3v-26.6c0-5.8-1.8-10.3-5.3-13.6
		C731.8,115.1,727.4,113.6,721.8,113.6z"/>
	<path class="st1" d="M793.2,92.1c-1.4,0-2.5,0.5-3.1,1.5c-0.5,0.7-0.7,1.8-0.7,3.3v22.9c-2-2.4-4.2-4-6.5-4.9s-5-1.3-8-1.3
		c-5.4,0-9.5,1.4-12.5,4.2c-4.2,4-6.4,10.9-6.4,20.6c0,9.7,2.1,16.6,6.4,20.6c3,2.8,7.2,4.2,12.5,4.2c3.1,0,5.8-0.5,8.1-1.4
		c2.3-0.9,4.4-2.6,6.5-5v1.4c0,1.5,0.2,2.6,0.7,3.3c0.7,1,1.7,1.5,3.1,1.5c1.4,0,2.5-0.5,3.1-1.5c0.5-0.7,0.7-1.8,0.7-3.3V97
		c0-1.5-0.2-2.6-0.7-3.3C795.7,92.7,794.7,92.1,793.2,92.1z M789.2,144.1c-0.2,1.6-0.5,3.3-1.1,5s-1.3,3.1-2.2,4.2
		c-0.9,1.1-2.2,2-3.8,2.7c-1.6,0.7-3.5,1-5.6,1c-2.2,0-4-0.3-5.6-1c-1.6-0.7-2.9-1.6-3.8-2.7c-0.9-1.1-1.6-2.5-2.2-4.2
		c-0.5-1.7-0.9-3.3-1.1-5c-0.2-1.6-0.3-3.5-0.3-5.6c0-2.1,0.1-4,0.3-5.6c0.2-1.6,0.5-3.3,1.1-5c0.5-1.7,1.3-3.1,2.2-4.2
		c0.9-1.1,2.2-2,3.8-2.7c1.6-0.7,3.5-1,5.6-1c2.2,0,4,0.3,5.6,1c1.6,0.7,2.9,1.6,3.8,2.7c0.9,1.1,1.6,2.5,2.2,4.2s0.9,3.3,1.1,5
		c0.2,1.6,0.3,3.5,0.3,5.6C789.4,140.6,789.3,142.4,789.2,144.1z"/>
</g>
<g>
</g>
<g>
</g>
<g>
</g>
<g>
</g>
<g>
</g>
<g>
</g>
</svg>
